<svg width="92" height="92" viewBox="0 0 92 92" fill="none" xmlns="http://www.w3.org/2000/svg">
<path d="M12.9375 24.4375C19.2783 24.4375 24.4375 19.2783 24.4375 12.9375C24.4375 11.132 24.0077 9.42856 23.2616 7.90481C24.8472 5.67956 27.4275 4.3125 30.1875 4.3125C34.27 4.3125 37.7746 7.2795 38.5236 11.2571C38.2504 11.408 37.9845 11.5704 37.7272 11.7487C35.9677 10.6749 33.9379 10.0625 31.8708 10.0625H31.625V12.9375H31.8708C33.1588 12.9375 34.4296 13.2552 35.5796 13.8216C35.4603 13.9782 35.3338 14.1249 35.2231 14.2902L34.7401 15.0147L37.1321 16.6089L37.6151 15.8844C38.847 14.0401 40.9069 12.9375 43.125 12.9375C44.7106 12.9375 46 14.2269 46 15.8125C46 17.3981 44.7106 18.6875 43.125 18.6875H33.0625C31.4769 18.6875 30.1875 17.3981 30.1875 15.8125H27.3125C27.3125 18.9836 29.8914 21.5625 33.0625 21.5625H69C72.1711 21.5625 74.75 18.9836 74.75 15.8125C74.75 12.6414 72.1711 10.0625 69 10.0625C68.3201 10.0625 67.6559 10.1488 67.0062 10.2882C65.3401 5.08013 60.4771 1.4375 54.8881 1.4375C49.7864 1.4375 45.1907 4.46631 43.1811 9.15544L42.7829 10.0841C42.2711 10.1027 41.768 10.1631 41.2735 10.2609C40.0947 5.16925 35.4904 1.4375 30.1875 1.4375C26.864 1.4375 23.736 2.92387 21.5941 5.39206C19.4853 2.97419 16.3904 1.4375 12.9375 1.4375C6.59669 1.4375 1.4375 6.59669 1.4375 12.9375C1.4375 19.2783 6.59669 24.4375 12.9375 24.4375ZM54.8881 4.3125C59.2681 4.3125 63.0473 7.21194 64.2907 11.3232C64.0564 11.4569 63.8236 11.5934 63.6022 11.7472C61.8412 10.6749 59.8129 10.0625 57.7458 10.0625H57.5V12.9375H57.7458C59.0324 12.9375 60.3046 13.2552 61.4546 13.8216C61.3353 13.9782 61.2087 14.1249 61.0981 14.2902L60.6151 15.0147L63.0071 16.6089L63.4901 15.8844C64.722 14.0401 66.7819 12.9375 69 12.9375C70.5856 12.9375 71.875 14.2269 71.875 15.8125C71.875 17.3981 70.5856 18.6875 69 18.6875H48.0758C48.5703 17.8379 48.875 16.8647 48.875 15.8125C48.875 13.5542 47.5554 11.6164 45.6579 10.6763L45.8246 10.2882C47.38 6.6585 50.9378 4.3125 54.8881 4.3125ZM12.9375 4.3125C17.6942 4.3125 21.5625 8.18081 21.5625 12.9375C21.5625 17.6942 17.6942 21.5625 12.9375 21.5625C8.18081 21.5625 4.3125 17.6942 4.3125 12.9375C4.3125 8.18081 8.18081 4.3125 12.9375 4.3125Z" fill="white"/>
<path d="M81.9374 53.1874V46.7187L87.6874 42.4062V38.8124H84.8124V40.9687L81.9374 43.1249V35.9374H79.0624V45.9999L76.1874 43.8437V41.6874H73.3124V45.2812L79.0624 49.5937V53.1874H64.6874V43.8437L70.4374 39.5312V35.9374H67.5624V38.0937L64.6874 40.2499V33.6575L67.1412 31.2037L65.1086 29.1711L61.8124 32.4673V43.1249L58.9374 40.9687V38.8124H56.0624V42.4062L61.8124 46.7187V53.1874H41.6874V51.3488L42.4004 51.1117C47.1326 49.5333 50.3124 45.123 50.3124 40.1349C50.3124 37.0457 49.1092 34.1391 46.9242 31.9541L40.2499 25.2798L34.7514 30.7782C34.1908 29.6253 33.4634 28.5558 32.5492 27.6402L25.8749 20.9673L19.2006 27.6416C17.0156 29.8266 15.8124 32.7332 15.8124 35.8224C15.8124 40.8105 18.9921 45.2208 23.7229 46.7977L24.4374 47.0349V53.1874H1.03345L1.73782 56.0035C6.82513 76.3513 25.0268 90.5624 45.9999 90.5624C66.973 90.5624 85.1746 76.3513 90.2619 56.0035L90.9663 53.1874H81.9374ZM42.6016 62.1833L44.2476 64.6515C44.4531 64.9591 44.5624 65.3185 44.5624 65.6893C44.5624 66.7229 43.7229 67.5624 42.6893 67.5624H20.5604C19.5269 67.5624 18.6874 66.7229 18.6874 65.6893C18.6874 65.3185 18.7966 64.9591 19.0022 64.65L20.6496 62.1804C21.2461 61.2834 21.5624 60.2383 21.5624 59.1602C21.5624 58.0533 21.2088 56.968 20.5834 56.0624H42.6663C42.041 56.9695 41.6874 58.0533 41.6874 59.1602C41.6874 60.2383 42.0036 61.2834 42.6016 62.1833ZM40.2499 29.345L44.8916 33.9867C46.5332 35.6283 47.4374 37.8133 47.4374 40.1349C47.4374 43.8106 45.1316 47.0593 41.6874 48.3013V46.5965L45.5787 42.7052L43.5461 40.6725L41.6874 42.5298V39.4075L44.1412 36.9537L42.1086 34.9211L38.8124 38.2173V48.2999C35.3681 47.0593 33.0624 43.812 33.0624 40.1349C33.0624 37.8133 33.9666 35.6283 35.6082 33.9867L40.2499 29.345ZM18.6874 35.8224C18.6874 33.5008 19.5916 31.3158 21.2332 29.6742L25.8749 25.0325L30.5166 29.6742C31.4739 30.6316 32.174 31.8032 32.5995 33.0825C31.0413 35.095 30.1874 37.5474 30.1874 40.1349C30.1874 40.8019 30.2535 41.4545 30.3628 42.0957C29.4873 42.9308 28.4523 43.582 27.3124 43.9917V34.9355L29.9459 30.9852L27.5539 29.391L25.6521 32.2445L24.0162 30.6086L21.9836 32.6412L24.4374 35.095V38.2173L22.5787 36.3586L20.5461 38.3912L24.4374 42.2825V43.9874C20.9931 42.7468 18.6874 39.4995 18.6874 35.8224ZM27.3124 47.0363L28.0254 46.7992C29.2113 46.4038 30.3096 45.7987 31.3043 45.0512C32.6211 47.8514 35.0217 50.0853 38.0979 51.1102L38.8124 51.3474V53.1874H27.3124V47.0363ZM16.6548 56.0624L17.9341 57.3418C18.4128 57.8205 18.6874 58.4846 18.6874 59.1602C18.6874 59.6691 18.5379 60.1636 18.2561 60.5877L16.6102 63.0558C16.0884 63.8378 15.8124 64.7492 15.8124 65.6893C15.8124 68.3085 17.9413 70.4374 20.5604 70.4374H42.6908C45.3084 70.4374 47.4374 68.3085 47.4374 65.6893C47.4374 64.7492 47.1614 63.8378 46.6396 63.0558L44.9936 60.5891C44.7119 60.165 44.5624 59.6705 44.5624 59.1602C44.5624 58.4832 44.8369 57.819 45.3156 57.3403L46.595 56.061H56.4218C56.1918 56.6144 56.0624 57.2196 56.0624 57.8535C56.0624 59.9983 57.5157 61.8613 59.5972 62.3802L65.6634 63.8968C66.7818 64.1785 67.5624 65.1776 67.5624 66.3305C67.5624 67.3612 66.9443 68.2754 65.9869 68.6563L56.9666 72.2659C54.6709 73.1845 53.1874 75.3752 53.1874 77.8463C53.1874 79.9968 54.3474 81.9978 56.2162 83.0644L60.119 85.294C55.8008 86.8019 51.1849 87.6242 46.4096 87.6702L39.0984 82.7956C38.9202 82.6777 38.8124 82.4779 38.8124 82.2623C38.8124 81.9475 39.0381 81.6815 39.35 81.6298L44.2878 80.8075C46.112 80.5013 47.4374 78.9359 47.4374 77.0844C47.4374 75.0043 45.7454 73.3124 43.6654 73.3124H14.0457C9.74901 68.4723 6.4902 62.6318 4.72207 56.0624H16.6548ZM37.5028 85.189L40.7084 87.3266C31.6105 86.1996 23.3075 82.2263 16.8359 76.1874H43.6654C44.1599 76.1874 44.5624 76.5899 44.5624 77.0844C44.5624 77.5257 44.2476 77.8966 43.8134 77.9699L38.8771 78.7922C37.1736 79.0768 35.9374 80.5344 35.9374 82.2623C35.9374 83.4396 36.5224 84.535 37.5028 85.189ZM63.5259 83.9312L57.6422 80.5689C56.6676 80.0112 56.0624 78.969 56.0624 77.8463C56.0624 76.5568 56.8372 75.414 58.0346 74.9353L67.0549 71.3258C69.1091 70.505 70.4374 68.5442 70.4374 66.3305C70.4374 63.8565 68.7613 61.7103 66.3621 61.1095L60.2958 59.5929C59.4951 59.3917 58.9374 58.6772 58.9374 57.8535C58.9374 56.866 59.7409 56.0624 60.7285 56.0624H87.2763C83.8608 68.7527 74.9641 78.795 63.5259 83.9312Z" fill="white"/>
<path d="M53.1875 24.4375H56.0625V27.3125H53.1875V24.4375Z" fill="white"/>
<path d="M56.0625 30.1875H58.9375V33.0625H56.0625V30.1875Z" fill="white"/>
<path d="M61.8125 24.4375H64.6875V27.3125H61.8125V24.4375Z" fill="white"/>
<path d="M67.5625 27.3125H70.4375V30.1875H67.5625V27.3125Z" fill="white"/>
<path d="M73.3125 33.0625H76.1875V35.9375H73.3125V33.0625Z" fill="white"/>
<path d="M73.3125 24.4375H76.1875V27.3125H73.3125V24.4375Z" fill="white"/>
</svg>
