<svg width="91" height="91" viewBox="0 0 91 91" fill="none" xmlns="http://www.w3.org/2000/svg">
<g clip-path="url(#clip0_309_160)">
<path d="M83.2614 21.9385C80.9455 20.1528 77.8254 19.4125 74.7024 19.9077C73.5441 20.0913 72.4391 20.4371 71.4229 20.9217C71.5693 19.8051 71.5565 18.6475 71.3727 17.4891C70.8776 14.3656 69.2088 11.6279 66.7943 9.97804C66.211 9.57938 65.4179 9.70522 64.9866 10.2647C63.2009 12.5806 62.4608 15.7002 62.9558 18.8235C63.3736 21.4597 64.6299 23.818 66.4625 25.4827L64.2975 28.4634C59.2516 25.1169 53.2686 23.077 46.833 22.8282V16.8814C50.3376 16.6224 53.7918 15.0036 56.4811 12.3144C59.52 9.27563 61.1977 5.26098 61.0839 1.29982C61.0636 0.593681 60.4958 0.0258208 59.7896 0.00555912C55.8276 -0.108013 51.8138 1.56944 48.7749 4.60816C47.384 5.99911 46.2792 7.59498 45.4998 9.29607C44.7205 7.59498 43.6157 5.99911 42.2247 4.60816C39.1864 1.56944 35.1729 -0.109613 31.2104 0.00555912C30.5042 0.0258208 29.9366 0.593503 29.9161 1.29982C29.8024 5.26098 31.48 9.27563 34.5189 12.3144C37.2084 15.004 40.6623 16.6228 44.167 16.8816V22.8268C40.5553 22.9652 37.023 23.6652 33.6489 24.9159C32.9586 25.1718 32.6063 25.9387 32.8622 26.629C33.118 27.3194 33.8849 27.6715 34.5754 27.4157C37.1957 26.4444 39.9204 25.8326 42.7059 25.5879L44.0673 27.7418C44.5687 28.5352 44.6542 29.5266 44.2959 30.3942L43.1436 33.1833C42.8585 33.8735 42.1917 34.3196 41.4448 34.3196H39.5084C38.9031 34.3196 38.337 34.0219 37.9939 33.5232L37.5939 32.9414C36.2783 31.028 33.7507 30.4278 31.7151 31.5453L27.412 33.908C26.5813 34.364 25.9788 35.1542 25.7587 36.076C25.5387 36.9977 25.7195 37.9749 26.2546 38.7569C27.1883 40.1215 28.954 40.605 30.4527 39.9065L32.2892 39.0503C32.6431 38.8856 33.0682 39.0093 33.2779 39.339L35.3512 42.5969C35.529 42.8762 35.476 43.1428 35.4285 43.2769C35.3811 43.4109 35.2545 43.6513 34.9407 43.7566L30.3798 45.2861C28.5573 45.8974 27.158 47.441 26.7279 49.3147L26.1457 51.852L25.6866 51.4564C24.5393 50.4674 22.848 50.3482 21.5735 51.1666L18.994 52.823L17.516 42.5745C17.8023 42.0157 18.1032 41.4636 18.4237 40.9219C21.1927 36.24 25.1486 32.3334 29.8639 29.6242C30.5023 29.2574 30.7223 28.4426 30.3556 27.8042C29.989 27.1658 29.1741 26.9456 28.5358 27.3124C27.909 27.6725 27.2951 28.0527 26.6938 28.451L24.5377 25.4825C26.3701 23.818 27.6264 21.4595 28.0444 18.8233C28.5396 15.7 27.7993 12.5804 26.0136 10.2645C25.5822 9.70522 24.7892 9.5792 24.2059 9.97786C21.7915 11.6278 20.1226 14.3654 19.6274 17.4889C19.4438 18.6472 19.4311 19.805 19.5775 20.9213C18.561 20.4366 17.4562 20.0909 16.298 19.9073C13.1743 19.4122 10.0549 20.1524 7.739 21.9381C7.17967 22.3695 7.05383 23.1625 7.45249 23.7458C9.10239 26.1602 11.8402 27.8289 14.9637 28.3241C15.5996 28.4249 16.2352 28.4745 16.8642 28.4745C18.842 28.4745 20.7513 27.9827 22.3823 27.051L24.5326 30.0113C21.172 32.6365 18.3097 35.8769 16.1291 39.564C13.0351 44.7954 11.4 50.7899 11.4 56.8998C11.4 75.7027 26.6972 91 45.5002 91C64.3032 91 79.6004 75.7028 79.6004 56.8998C79.6004 45.9935 74.4532 36.2676 66.4612 30.0211L68.6182 27.0515C70.2493 27.9832 72.1583 28.475 74.1363 28.475C74.765 28.475 75.4011 28.4254 76.0368 28.3246C79.1603 27.8295 81.8982 26.1607 83.5481 23.7464C83.9464 23.1629 83.8207 22.3698 83.2614 21.9385ZM22.2606 17.9066C22.5613 16.0105 23.4082 14.3101 24.6424 13.0692C25.4324 14.6311 25.7118 16.5099 25.4113 18.4058C25.1107 20.3019 24.2638 22.0023 23.0296 23.2432C22.2392 21.6813 21.96 19.8028 22.2606 17.9066ZM15.381 25.6913C13.4848 25.3908 11.7846 24.5441 10.5436 23.3095C12.1056 22.5195 13.984 22.2399 15.8805 22.5406C17.7767 22.8412 19.4767 23.6879 20.7177 24.9224C19.1559 25.7127 17.2771 25.992 15.381 25.6913ZM50.6603 6.49338C52.8344 4.31934 55.5861 2.98403 58.3735 2.71618C58.1056 5.50358 56.7701 8.25526 54.5961 10.4293C52.4219 12.6035 49.6705 13.9388 46.883 14.2067C47.1508 11.4193 48.4863 8.66743 50.6603 6.49338ZM36.4041 10.4293C34.2301 8.25526 32.8946 5.50358 32.6267 2.71618C35.414 2.9842 38.166 4.31952 40.3399 6.49338C42.5139 8.66743 43.8494 11.4191 44.1172 14.2065C41.3298 13.9387 38.5782 12.6033 36.4041 10.4293ZM14.066 56.8998C14.066 53.6709 14.5634 50.4781 15.523 47.4325L16.729 55.7948C16.9737 57.4913 17.9649 58.9566 19.4486 59.8148L20.9585 60.6882L19.6607 64.1898C18.8244 66.4456 19.5263 68.9692 21.4069 70.4696L23.2897 71.9717C23.7681 72.3534 24.1568 72.8491 24.4133 73.4049L29.1942 83.765C20.1306 78.2435 14.066 68.2668 14.066 56.8998ZM33.6761 65.6372L36.2847 66.6053C36.7852 66.7911 37.1668 67.1675 37.3594 67.6653C37.5519 68.1632 37.5229 68.6985 37.2779 69.1727L34.1025 75.3138C33.1415 77.1722 32.8798 79.3165 33.3656 81.3514L34.5633 86.3704C34.0529 86.1804 33.549 85.9771 33.0515 85.7615L26.8339 72.2878C26.4043 71.3569 25.7534 70.527 24.9522 69.8876L23.0694 68.3855C22.0903 67.6044 21.7251 66.2906 22.1603 65.1163L23.5301 61.4208H30.6473C31.078 61.4208 31.4283 61.7712 31.4283 62.2018V62.4055C31.4283 63.8396 32.3317 65.1383 33.6761 65.6372ZM76.5153 51.7811L76.0207 52.2098C75.4167 52.7332 74.6141 52.9852 73.8193 52.9008L71.858 52.6929C71.4197 52.6466 70.9858 52.8199 70.7004 53.1566C70.4149 53.4932 70.3149 53.9493 70.4327 54.3746L71.4541 58.059C71.7366 59.0776 71.6049 60.1449 71.0836 61.0643L63.2 74.9656C62.9832 75.3479 62.5753 75.5855 62.1354 75.5855C61.4605 75.5855 60.9115 75.0365 60.9115 74.3616V68.529C60.9115 67.7928 60.3147 67.196 59.5785 67.196C58.8423 67.196 58.2455 67.7928 58.2455 68.529V74.3618C58.2455 76.5067 59.9905 78.2517 62.1354 78.2517C63.5331 78.2517 64.8296 77.4963 65.5191 76.2808L73.4026 62.3797C74.2758 60.84 74.4962 59.0527 74.0235 57.347L73.5255 55.551L73.5381 55.5524C74.6967 55.6754 75.8635 55.4255 76.8661 54.8585C76.9097 55.5338 76.9342 56.2141 76.9342 56.9002C76.9342 74.233 62.833 88.3344 45.5 88.3344C42.7464 88.3344 40.0749 87.9773 37.5281 87.309L35.9587 80.7327C35.6214 79.319 35.8032 77.8296 36.4708 76.5385L39.6462 70.3975C40.2384 69.2523 40.3111 67.906 39.8459 66.7036C39.3808 65.5013 38.4209 64.5546 37.2124 64.106L34.6037 63.1379C34.299 63.0249 34.0945 62.7306 34.0945 62.4057V62.202C34.0945 60.3013 32.5482 58.755 30.6475 58.755H22.9408L20.7838 57.5073C20.0999 57.1117 19.6182 56.4677 19.4282 55.7126L23.0142 53.41C23.3028 53.2246 23.686 53.2515 23.9462 53.4756L24.5258 53.9754C25.2142 54.5688 26.1407 54.7542 27.0047 54.4709C27.8684 54.1876 28.5054 53.4896 28.7088 52.6038L29.3267 49.9113C29.5505 48.9359 30.279 48.1324 31.2278 47.8141L35.7886 46.2845C36.8008 45.945 37.5857 45.1731 37.942 44.1668C38.2984 43.1603 38.174 42.0665 37.6008 41.1657L35.5275 37.9079C34.6021 36.4535 32.7259 35.9059 31.1631 36.6341L29.3266 37.4902C29.0155 37.6352 28.6489 37.5348 28.4551 37.2515C28.303 37.0292 28.3254 36.8073 28.3522 36.695C28.3791 36.5825 28.4594 36.3746 28.6954 36.245L32.9986 33.8826C33.8296 33.4263 34.8607 33.6714 35.3976 34.4522L35.7977 35.0339C36.6382 36.256 38.0256 36.9858 39.5088 36.9858H41.4452C43.2751 36.9858 44.9092 35.8929 45.6079 34.2016L46.7601 31.4124C47.4485 29.7461 47.2845 27.8417 46.3213 26.3177L45.7853 25.4695C48.4806 25.4937 51.0958 25.8584 53.5903 26.5231L52.4819 27.471C51.3281 28.4576 50.9559 30.1142 51.5769 31.4995C52.3371 33.1956 54.3485 33.9876 56.0617 33.2644L56.7458 32.9756C56.8393 32.9361 56.9388 32.9194 57.0364 32.9237C56.7858 33.8776 56.0931 34.9161 55.3475 35.3574L50.4721 38.2422C48.7888 39.2382 47.743 41.0722 47.743 43.028V43.8332C47.743 45.5455 48.7131 47.0354 50.1325 47.7822C48.6606 49.1931 47.743 51.178 47.743 53.373C47.743 57.6445 51.2182 61.1198 55.4897 61.1198H56.4081C57.4215 61.1198 58.246 61.9443 58.246 62.9577C58.246 63.6939 58.8428 64.2907 59.579 64.2907C60.3152 64.2907 60.912 63.6939 60.912 62.9577C60.912 60.4742 58.8915 58.4537 56.4081 58.4537H55.4897C52.6881 58.4537 50.409 56.1745 50.409 53.373C50.409 50.5716 52.6883 48.2923 55.4897 48.2923H62.2735C64.541 48.2923 66.3857 46.4476 66.3857 44.1801C66.3857 41.9126 64.541 40.0679 62.2735 40.0679H58.176C55.9794 40.0679 54.182 41.7183 53.9953 43.9069L53.9896 43.9743C53.9895 43.9759 53.9881 43.9914 53.9879 43.993C53.9047 44.9243 53.1369 45.6265 52.202 45.6265C51.2133 45.6265 50.409 44.8221 50.409 43.8335V43.0284C50.409 42.0101 50.9534 41.0554 51.8298 40.5369L56.7052 37.6521C58.4415 36.6246 59.8016 34.2396 59.8016 32.2222C59.8016 31.883 59.6722 31.5565 59.44 31.3095C58.4885 30.2968 56.9891 29.9795 55.7089 30.52L55.0248 30.8088C54.637 30.9725 54.182 30.7934 54.0097 30.4093C53.8691 30.0957 53.9534 29.7209 54.2145 29.4977L56.5723 27.4815C66.9162 31.3868 74.6761 40.5989 76.5153 51.7811ZM56.2899 45.626C56.4767 45.1955 56.5983 44.7277 56.6423 44.2343C56.6427 44.2309 56.6443 44.2137 56.6445 44.2103L56.651 44.133C56.7191 43.335 57.3746 42.7333 58.1755 42.7333H62.2729C63.0704 42.7333 63.7192 43.3821 63.7192 44.1796C63.7192 44.9771 63.0704 45.6258 62.2729 45.6258H56.2899V45.626ZM65.5891 18.406C65.2886 16.5099 65.568 14.6311 66.358 13.0694C67.5922 14.3103 68.4391 16.0105 68.7396 17.9066C69.0402 19.8026 68.7609 21.6813 67.9707 23.2434C66.7364 22.0025 65.8896 20.3021 65.5891 18.406ZM75.6192 25.6913C73.7229 25.9917 71.8443 25.7125 70.2825 24.9224C71.5235 23.6881 73.2235 22.8414 75.1197 22.5408C77.0158 22.2401 78.8946 22.5195 80.4566 23.3097C79.2156 24.5441 77.5154 25.3908 75.6192 25.6913Z" fill="white"/>
</g>
<defs>
<clipPath id="clip0_309_160">
<rect width="91" height="91" fill="white"/>
</clipPath>
</defs>
</svg>
