<?xml version="1.0" encoding="UTF-8"?>
<svg id="Layer_1" xmlns="http://www.w3.org/2000/svg" version="1.1" viewBox="0 0 512 512">
  <!-- Generator: Adobe Illustrator 29.8.2, SVG Export Plug-In . SVG Version: 2.1.1 Build 3)  -->
  <defs>
    <style>
      .st0 {
        fill: #fff;
      }
    </style>
  </defs>
  <path class="st0" d="M256,369c69.4,0,125.8-56.4,125.8-125.8,0-69.5-56.4-125.8-125.8-125.8-69.4,0-125.8,56.4-125.8,125.8,0,31.7,12.1,62.3,33.6,85.6l-13,48.5c-2.1,8,2.6,16.2,10.6,18.4,3.8,1,7.9.5,11.4-1.5l50.9-29.4c10.5,2.8,21.4,4.2,32.3,4.2h0ZM214.2,335.6l-25.1,14.5,5.9-21.9c1.4-5.4-.2-11.1-4.3-14.9-19.6-18.1-30.7-43.5-30.6-70.1,0-52.9,42.9-95.8,95.8-95.7,52.9,0,95.8,42.9,95.7,95.8,0,52.9-42.9,95.8-95.8,95.7-10,0-20-1.6-29.5-4.7-4-1.3-8.5-.9-12.1,1.3h0ZM503.8,253.9c.2-6.1.3-12.5,0-19.1-1.6-38.4-33.4-68.6-71.8-68.3-29.7-67.9-97.4-115.4-176.1-115.4s-146.4,47.5-176,115.4c-38.4-.3-70.1,29.9-71.8,68.3-.3,6.6-.1,13,0,19.1.2,6.5.4,13.2,0,20.7-1.7,39.3,28.8,72.6,68.2,74.4,1.1,0,2.2,0,3.3,0,9.4,0,18.7-1.9,27.4-5.5,7.5-3.2,11.2-11.8,8.1-19.4-.2-.7-.5-1.4-.8-2-13.4-24.1-20.5-51.3-20.5-78.9,0-89.4,72.7-162.1,162-162.1s162.1,72.7,162.1,162.1c.2,78.1-55.4,145.1-132.2,159.3-9.3-21-33.8-30.5-54.8-21.2-21,9.3-30.5,33.8-21.2,54.8,9.3,21,33.8,30.5,54.8,21.2,10.6-4.7,18.8-13.6,22.6-24.6,53.4-8.8,100.6-39.8,130.1-85.2,4.9,1.1,9.9,1.6,15,1.6,1.1,0,2.2,0,3.3,0,39.4-1.7,69.9-35,68.2-74.4,0,0,0,0,0,0-.3-7.5-.2-14.2,0-20.7h0ZM77.7,319c-22.8-1-40.5-20.3-39.5-43.1.4-8.6.2-16.2,0-22.8-.2-5.9-.3-11.4,0-17,.8-18.3,13.5-33.9,31.3-38.4-9.5,38.9-6.6,79.7,8.3,116.9h0c.6,1.5,1.2,3,1.8,4.4-.6,0-1.2,0-1.8,0h0ZM247.9,430.9c-6.4,0-11.6-5.2-11.6-11.6,0-6.4,5.2-11.6,11.6-11.6,6.4,0,11.6,5.2,11.6,11.6h0c0,6.4-5.2,11.6-11.6,11.6h0ZM473.8,275.9c1,22.8-16.7,42.1-39.5,43.1,0,0,0,0,0,0-.6,0-1.2,0-1.7,0,0,0,0-.1,0-.2,16.4-38.2,19.9-80.7,10.1-121.1,17.8,4.5,30.5,20.1,31.3,38.4.2,5.6.1,11.1,0,17-.2,6.7-.4,14.3,0,22.8h0ZM220.9,241.7c0,.5,0,1,0,1.5,0,.5,0,1,0,1.5,0,.5-.1,1-.2,1.4s-.2,1-.4,1.4-.3.9-.5,1.4-.4.9-.6,1.3-.5.9-.8,1.3c-.3.4-.6.8-.9,1.2-.3.4-.6.8-1,1.1-.3.3-.7.7-1.1,1-.4.3-.8.6-1.2.9-.4.3-.8.5-1.3.8-.4.2-.9.4-1.3.6-.5.2-.9.4-1.4.5-.5.1-.9.3-1.4.4-.5,0-1,.2-1.4.2-1,0-2,0-3,0-.5,0-1-.1-1.4-.2-.5-.1-1-.2-1.4-.4-.5-.1-.9-.3-1.4-.5-.5-.2-.9-.4-1.3-.6-.4-.2-.9-.5-1.3-.8-.4-.3-.8-.6-1.2-.9-.4-.3-.8-.6-1.1-1-.3-.4-.7-.7-1-1.1-.3-.4-.6-.8-.9-1.2-.3-.4-.5-.8-.8-1.3-.2-.4-.4-.9-.6-1.3s-.4-.9-.5-1.4-.3-.9-.4-1.4-.2-1-.2-1.4,0-1,0-1.5,0-1,0-1.5.1-1,.2-1.5.2-.9.4-1.4.3-.9.5-1.4.4-.9.6-1.3c.5-.9,1-1.7,1.6-2.4.3-.4.6-.8,1-1.1.3-.3.7-.7,1.1-1,.4-.3.8-.6,1.2-.9.4-.3.8-.5,1.3-.8.4-.2.9-.4,1.3-.6.4-.2.9-.4,1.4-.5.5-.1.9-.3,1.4-.4,1.9-.4,3.9-.4,5.9,0,.5,0,1,.2,1.4.4.5.1.9.3,1.4.5s.9.4,1.3.6c.4.2.9.5,1.3.8.4.3.8.6,1.2.9.4.3.8.6,1.1,1,.3.3.7.7,1,1.1.6.8,1.2,1.6,1.6,2.4.2.4.4.9.6,1.3s.4.9.5,1.4.3.9.4,1.4.2,1,.2,1.5h0ZM241,243.2c0-8.3,6.7-15,15-15h0c8.3,0,15,6.7,15,15,0,8.3-6.7,15-15,15-8.3,0-15-6.7-15-15h0ZM291.1,244.7c0-.5,0-1,0-1.5,0-.5,0-1,0-1.5,0-.5.1-1,.2-1.5s.2-.9.4-1.4c.1-.5.3-.9.5-1.4.2-.4.4-.9.6-1.3.5-.9,1-1.7,1.6-2.4.3-.4.6-.8,1-1.1.3-.3.7-.7,1.1-1,.4-.3.8-.6,1.2-.9.4-.3.8-.5,1.3-.8.4-.2.9-.4,1.3-.6s.9-.4,1.4-.5c.5-.1.9-.3,1.4-.4,1.4-.3,2.9-.4,4.4-.2.5,0,1,.1,1.5.2.5,0,1,.2,1.4.4.5.1.9.3,1.4.5s.9.4,1.3.6c.4.2.9.5,1.3.8.4.3.8.6,1.2.9.4.3.7.6,1.1,1,.4.3.7.7,1,1.1.3.4.6.8.9,1.2.3.4.5.8.8,1.3.2.4.4.9.6,1.3.2.5.4.9.5,1.4.1.5.3.9.4,1.4.1.5.2,1,.2,1.5,0,.5,0,1,0,1.5,0,.5,0,1,0,1.5,0,.5-.1,1-.2,1.4,0,.5-.2,1-.4,1.4-.1.5-.3.9-.5,1.4-.2.4-.4.9-.6,1.3s-.5.9-.8,1.3-.6.8-.9,1.2c-.3.4-.6.8-1,1.1-.3.4-.7.7-1.1,1-.4.3-.8.6-1.2.9-.4.3-.8.5-1.3.8-.4.2-.9.4-1.3.6-.5.2-.9.4-1.4.5-.5.1-.9.3-1.4.4-1,.2-1.9.3-2.9.3-.5,0-1,0-1.5,0-.5,0-1-.1-1.5-.2-.5-.1-1-.2-1.4-.4-.5-.1-.9-.3-1.4-.5-.5-.2-.9-.4-1.3-.6-.4-.2-.9-.5-1.3-.8-.4-.3-.8-.6-1.2-.9-.4-.3-.8-.6-1.1-1-.3-.4-.7-.7-1-1.1-.3-.4-.6-.8-.9-1.2-.3-.4-.5-.8-.8-1.3s-.4-.9-.6-1.3c-.2-.5-.4-.9-.5-1.4-.1-.5-.3-.9-.4-1.4s-.2-1-.2-1.4h0Z"/>
</svg>