<svg width="87" height="87" viewBox="0 0 87 87" fill="none" xmlns="http://www.w3.org/2000/svg">
<g clip-path="url(#clip0_439_367)">
<path d="M46.4527 51.2603C44.463 49.3644 41.6194 48.7604 39.0311 49.6851C35.8495 50.8214 33.7119 53.8546 33.7119 57.233V59.93C33.7119 63.5662 36.6703 66.5245 40.3064 66.5245C42.7144 66.5245 44.9296 65.2131 46.088 63.1018L47.8039 59.974C49.379 57.103 48.8234 53.5197 46.4527 51.2603ZM44.8243 58.3395L43.1084 61.4675C42.547 62.4906 41.4734 63.1262 40.3064 63.1262C38.5442 63.1262 37.1104 61.6924 37.1104 59.9302V57.2332C37.1104 55.2872 38.3416 53.5403 40.174 52.8856C40.5992 52.7337 41.0374 52.6597 41.4711 52.6597C42.4367 52.6597 43.3803 53.0271 44.1081 53.7206C45.3648 54.9182 45.6595 56.8176 44.8243 58.3395Z" fill="#9DBD4D"/>
<path d="M70.9456 79.327L66.1999 84.0727C65.5363 84.7363 65.5362 85.8122 66.1999 86.476C66.5317 86.8076 66.9666 86.9736 67.4014 86.9736C67.8362 86.9736 68.2712 86.8076 68.6029 86.476L73.3487 81.7302C74.0122 81.0667 74.0124 79.9907 73.3487 79.327C72.6851 78.6638 71.6092 78.6638 70.9456 79.327Z" fill="#9DBD4D"/>
<path d="M84.93 42.3105C83.6143 41.2038 81.8885 40.7375 80.1944 41.0327C77.4049 41.5178 75.3803 43.925 75.3803 46.7566V50.0971C73.3551 45.72 70.4299 41.7671 66.7531 38.5153L69.7692 34.6878C71.1618 35.4215 72.7458 35.8392 74.4262 35.8392C79.3803 35.8392 83.5952 32.159 84.3341 27.3323C86.0121 25.8079 86.9944 23.6184 86.9944 21.3357C86.9944 16.8747 83.365 13.2454 78.904 13.2454C76.6212 13.2454 74.4318 14.2278 72.9074 15.9058C68.0809 16.6446 64.4007 20.8595 64.4007 25.8137C64.4007 28.4385 65.416 30.8298 67.0727 32.6188L64.1014 36.3894C58.5908 32.3945 52.0272 30.0835 45.1992 29.7537V25.0381C46.724 25.9189 48.4692 26.396 50.2991 26.396C55.9302 26.396 60.5115 21.8147 60.5115 16.1834C60.5115 11.7885 57.7254 7.93703 53.636 6.52956C51.837 2.60347 47.8683 0.0214844 43.4999 0.0214844C39.1315 0.0214844 35.1628 2.6033 33.3638 6.52956C29.2744 7.93686 26.4884 11.7883 26.4884 16.1834C26.4884 21.8147 31.0697 26.396 36.7008 26.396C38.5307 26.396 40.2758 25.9189 41.8007 25.0381V29.7535C34.9731 30.0833 28.409 32.3941 22.8984 36.389L19.9273 32.6186C21.584 30.8296 22.5993 28.4383 22.5993 25.8135C22.5993 20.8595 18.9191 16.6444 14.0926 15.9056C12.5682 14.2276 10.3788 13.2453 8.09601 13.2453C3.635 13.2453 0.00560748 16.8745 0.00560748 21.3355C0.00560748 23.6183 0.987935 25.8077 2.66593 27.3321C3.40476 32.1586 7.61971 35.839 12.5738 35.839C14.2542 35.839 15.8382 35.4213 17.2308 34.6876L20.2469 38.5151C16.5704 41.7666 13.6449 45.7195 11.6197 50.0966V46.7564C11.6197 43.9251 9.59507 41.5178 6.80544 41.0324C5.11164 40.7382 3.38573 41.2036 2.07001 42.3104C0.75446 43.4169 0 45.0375 0 46.7566V56.4181C0 63.9374 2.92812 71.0065 8.24503 76.3234L18.3974 86.4759C18.7293 86.8075 19.1641 86.9736 19.599 86.9736C20.0338 86.9736 20.4688 86.8075 20.8005 86.4759C21.4641 85.8123 21.4641 84.7364 20.8005 84.0726L10.6479 73.9202C5.97315 69.2453 3.39847 63.0295 3.39847 56.4181V46.7566C3.39847 46.0432 3.71164 45.3705 4.25777 44.9114C4.80374 44.4519 5.51997 44.259 6.22328 44.3809C7.38097 44.5824 8.22141 45.5814 8.22141 46.7566V57.5447C8.22141 61.0125 9.57196 64.273 12.0241 66.7253L21.2404 75.9416L21.9254 76.6266C22.5891 77.29 23.6649 77.2901 24.3286 76.6266C24.9922 75.963 24.9922 74.8871 24.3286 74.2234L14.6873 64.5821C13.5567 63.4516 13.5567 61.612 14.6873 60.4813C15.8178 59.3506 17.6576 59.3506 18.7881 60.4813L26.5144 68.2076C26.833 68.5262 27.2652 68.7053 27.7159 68.7053C31.0082 68.7053 34.1033 69.9873 36.4313 72.3153C39.894 75.778 41.801 80.3819 41.801 85.2789C41.801 86.2172 42.5618 86.9781 43.5003 86.9781C44.4387 86.9781 45.1995 86.2172 45.1995 85.2789C45.1995 80.3819 47.1065 75.778 50.5692 72.3153C52.897 69.9873 55.9922 68.7053 59.2845 68.7053C59.7351 68.7053 60.1674 68.5262 60.486 68.2076L68.2121 60.4813C69.3427 59.3506 71.1823 59.351 72.313 60.4813C73.4437 61.6118 73.4437 63.4514 72.313 64.5821L62.6717 74.2234C62.0082 74.8869 62.0082 75.9629 62.6717 76.6266C63.0036 76.9583 63.4384 77.1243 63.8732 77.1243C64.3081 77.1243 64.7431 76.9583 65.0748 76.6266L65.7597 75.9416L74.976 66.7253C77.4282 64.2728 78.7788 61.0125 78.7788 57.5447V46.7566C78.7788 45.5814 79.619 44.5822 80.7767 44.381C81.4794 44.2585 82.1963 44.4517 82.7422 44.9114C83.2884 45.3705 83.6015 46.0432 83.6015 46.7566V56.4181C83.6015 60.512 82.573 64.58 80.627 68.1824C80.181 69.0081 80.4889 70.0392 81.3145 70.4852C82.1397 70.9306 83.1709 70.6234 83.6172 69.7977C85.8302 65.7007 87 61.074 87 56.4181V46.7566C87 45.0375 86.2455 43.4169 84.93 42.3105ZM73.9105 19.2089C74.3993 19.1714 74.8483 18.9245 75.1417 18.5316C76.0377 17.3318 77.409 16.6439 78.9038 16.6439C81.4911 16.6439 83.5957 18.7488 83.5957 21.3357C83.5957 22.8305 82.9077 24.2016 81.7079 25.0979C81.315 25.3916 81.0681 25.8403 81.0306 26.3292C80.7675 29.7562 77.8663 32.4407 74.426 32.4407C70.7718 32.4407 67.799 29.4679 67.799 25.8137C67.7991 22.3732 70.4834 19.4721 73.9105 19.2089ZM29.8868 16.1834C29.8868 13.0521 32.0053 10.3345 35.0386 9.57442C35.5852 9.43746 36.0285 9.03831 36.2217 8.50883C37.3332 5.46498 40.2579 3.41996 43.4999 3.41996C46.7419 3.41996 49.6668 5.46498 50.7781 8.50883C50.9715 9.03814 51.4146 9.43746 51.9613 9.57442C54.9946 10.3345 57.113 13.0521 57.113 16.1834C57.113 19.9406 54.0562 22.9975 50.2991 22.9975C48.4836 22.9975 46.7925 22.2942 45.5257 21.0436L48.6022 17.9671C49.2658 17.3036 49.2658 16.2276 48.6022 15.5639C47.9387 14.9005 46.8627 14.9005 46.199 15.5639L45.199 16.5639V10.8478C45.199 9.9095 44.4382 9.14859 43.4997 9.14859C42.5613 9.14859 41.8005 9.9095 41.8005 10.8478V18.2779L39.0938 15.5712C38.4302 14.9078 37.3543 14.9078 36.6906 15.5712C36.027 16.2347 36.027 17.3107 36.6906 17.9744L40.5346 21.8184C39.4209 22.5799 38.0977 22.9974 36.7004 22.9974C32.9436 22.9974 29.8868 19.9406 29.8868 16.1834ZM5.96924 26.3292C5.93169 25.8403 5.68479 25.3914 5.29193 25.0979C4.0921 24.2018 3.40408 22.8305 3.40408 21.3357C3.40408 18.7486 5.50892 16.6439 8.09601 16.6439C9.59082 16.6439 10.9621 17.3319 11.8581 18.5316C12.1516 18.9246 12.6005 19.1715 13.0894 19.2089C16.5164 19.4721 19.2008 22.3731 19.2008 25.8135C19.2008 29.4677 16.228 32.4405 12.5738 32.4405C9.13356 32.4407 6.23246 29.7562 5.96924 26.3292ZM12.5638 57.8166C13.5657 53.3856 15.4982 49.3228 18.1325 45.8267H23.0379C25.3504 45.8267 27.2318 47.708 27.2318 50.0206C27.2318 51.3437 26.5971 52.6035 25.5339 53.3907C23.7344 54.7236 22.452 56.624 21.8549 58.7423L21.191 58.0784C18.8263 55.7137 15.0343 55.6273 12.5638 57.8166ZM58.5643 65.3229C54.6347 65.4988 50.9653 67.1127 48.166 69.9122C46.1482 71.9301 44.5771 74.2753 43.5001 76.8276C42.4231 74.2753 40.852 71.9299 38.8343 69.9122C36.0348 67.1127 32.3655 65.4988 28.4359 65.3229L24.8748 61.7618V61.4454C24.8748 59.3555 25.8773 57.3654 27.5567 56.1216C29.4814 54.6962 30.6302 52.4154 30.6302 50.0205C30.6302 45.8341 27.2245 42.4281 23.0379 42.4281H21.0899C26.8783 36.6538 34.851 33.1098 43.5001 33.1098C49.4167 33.1098 55.0156 34.7668 59.8156 37.6612C54.9206 39.1336 51.3438 43.6801 51.3438 49.0485C51.3438 53.1078 53.3808 56.8441 56.793 59.0432L60.3269 61.3204C60.7762 61.6099 61.1713 61.9714 61.5003 62.3865L58.5643 65.3229ZM65.8088 58.0784L63.9127 59.9748C63.4066 59.395 62.8211 58.885 62.1681 58.4641L58.634 56.187C56.1971 54.6164 54.7422 51.9479 54.7422 49.0488C54.7422 44.3663 58.5516 40.5567 63.2342 40.5567H63.8669C69.0678 44.919 72.878 50.9226 74.4365 57.8167C71.966 55.6273 68.1738 55.7136 65.8088 58.0784Z" fill="#9DBD4D"/>
<path d="M77.5547 73.4233C77.1061 73.4233 76.6677 73.6036 76.3516 73.9195C76.0356 74.2356 75.8555 74.674 75.8555 75.1226C75.8555 75.5695 76.0356 76.0062 76.3516 76.3239C76.6694 76.64 77.1061 76.8218 77.5547 76.8218C78.0016 76.8218 78.4383 76.6401 78.756 76.3239C79.0721 76.0062 79.2539 75.5695 79.2539 75.1226C79.2539 74.674 79.0721 74.2373 78.756 73.9195C78.4383 73.6036 78.0018 73.4233 77.5547 73.4233Z" fill="#9DBD4D"/>
</g>
<defs>
<clipPath id="clip0_439_367">
<rect width="87" height="87" fill="white"/>
</clipPath>
</defs>
</svg>
