<svg width="83" height="83" viewBox="0 0 83 83" fill="none" xmlns="http://www.w3.org/2000/svg">
<path d="M30.7978 12.9027C31.4605 13.1271 32.2127 12.7652 32.437 12.0779L34.2643 6.54673C34.5821 5.5663 35.6909 4.95547 36.7167 5.3147C37.7348 5.65708 38.2924 6.76072 37.9591 7.77617C37.4533 9.40375 39.8655 10.1987 40.4232 8.58672C41.4127 5.72062 39.1367 2.58089 36.1176 2.6185C34.1398 2.6185 32.4033 3.87647 31.799 5.74008L29.973 11.2648C29.7486 11.9443 30.1169 12.6784 30.7978 12.9027Z" fill="#9DBD4D"/>
<path d="M18.0461 23.1324C22.497 26.4187 29.1915 22.8976 29.0501 17.3781C29.0501 13.5173 25.9091 10.375 22.047 10.375C15.2449 10.3595 12.4657 19.2833 18.0461 23.1324ZM22.047 12.9688C24.4786 12.9688 26.4563 14.9465 26.4563 17.3781C26.5705 20.8278 22.3232 23.0623 19.5297 21.0055C16.0152 18.6141 17.7802 12.9299 22.047 12.9688Z" fill="#9DBD4D"/>
<path d="M44.2131 9.41539C44.894 9.19103 45.2649 8.45959 45.0405 7.77744C44.7072 6.76198 45.2636 5.65704 46.2985 5.31078C47.2439 4.97359 48.4163 5.56497 48.7379 6.55578L50.6443 12.3191C50.8246 12.8638 51.3304 13.2087 51.875 13.2087C52.7388 13.2217 53.395 12.3243 53.1058 11.5047L51.202 5.74912C50.4848 3.39919 47.7769 2.03358 45.4581 2.85839C43.0913 3.65208 41.7996 6.22378 42.5765 8.59058C42.8008 9.27014 43.531 9.64364 44.2131 9.41798V9.41539Z" fill="#9DBD4D"/>
<path d="M56.9588 23.1376C61.4162 26.4057 68.1068 22.9067 67.9693 17.3781C67.9693 13.5173 64.8283 10.375 60.9662 10.375C54.1511 10.3595 51.3667 19.2807 56.9588 23.1376ZM60.9662 12.9688C63.3978 12.9688 65.3756 14.9465 65.3756 17.3781C65.4923 20.8486 61.2139 23.0481 58.436 21.0055C54.9163 18.6089 56.6904 12.9286 60.9662 12.9688Z" fill="#9DBD4D"/>
<path d="M32.6292 19.1421C32.6292 20.3897 32.8808 21.588 33.3697 22.6891C37.6105 32.0836 51.5831 28.1437 50.3536 17.9425C48.6404 7.09675 32.8756 8.13814 32.6292 19.1421ZM41.5258 12.8406C45.9585 12.7187 49.2383 17.7233 47.2787 21.7411C45.8159 25.2491 41.0797 26.5473 37.9762 24.3607C32.899 20.9707 35.4019 12.7926 41.5258 12.8393V12.8406Z" fill="#9DBD4D"/>
<path d="M76.5156 41.5H72.7288V28.5974L79.3272 8.59569C81.0936 2.87128 72.7093 0.0843015 70.7186 5.74127L68.7992 11.55C68.5749 12.2295 68.9445 12.9636 69.624 13.1879C70.3036 13.4175 71.0376 13.0453 71.262 12.3631L73.1827 6.54663C73.503 5.55322 74.5768 4.94629 75.6247 5.31719C76.6323 5.63104 77.2224 6.77747 76.8658 7.77607L70.1998 27.9814C70.1571 28.1137 70.135 28.2498 70.135 28.3873V41.4987H57.1273V36.6484C57.1727 32.4582 54.8928 28.3108 51.3653 26.097C50.9218 25.8065 50.4886 25.459 49.9427 25.4564C48.5693 25.4343 48.1711 27.3952 49.4109 27.9308C49.5717 28.0125 49.7196 28.1098 49.9375 28.2615C52.7621 30.033 54.5634 33.3089 54.5323 36.6484V41.4987H28.5312V36.6484C28.5312 33.9768 29.583 31.4674 31.5102 29.5623C31.8889 29.1719 32.2961 28.8256 32.7448 28.5131C33.6111 27.9515 34.7835 27.4341 34.174 26.1917C33.4581 24.9143 32.0782 25.7469 31.2417 26.3992C30.6815 26.7883 30.1459 27.2435 29.6686 27.735C27.2629 30.1121 25.9375 33.2765 25.9375 36.6471V41.4974H12.3592V26.8427C12.3592 26.7053 12.3372 26.5678 12.2944 26.4368L6.13163 7.76958C5.77888 6.7658 6.36766 5.62714 7.39348 5.31071C8.3428 4.97222 9.49442 5.55322 9.81864 6.55441L11.738 12.3631C11.9637 13.044 12.699 13.4162 13.376 13.1879C14.0555 12.9636 14.4251 12.2308 14.2008 11.55L12.2827 5.74775C11.1466 1.92846 5.59083 1.55755 3.91138 5.14211C3.37188 6.22241 3.28758 7.44796 3.67016 8.58791L9.76547 27.0528V41.4987H6.48438C4.33934 41.4987 2.59375 43.2443 2.59375 45.3893V76.5143C2.59375 78.6594 4.33934 80.405 6.48438 80.405H76.5156C78.6607 80.405 80.4062 78.6594 80.4062 76.5143V45.3893C80.4062 43.2443 78.6607 41.5 76.5156 41.5ZM77.8125 76.5156C77.8125 77.2315 77.2302 77.8125 76.5156 77.8125H6.48438C5.7698 77.8125 5.1875 77.2315 5.1875 76.5156V45.3906C5.1875 44.6747 5.7698 44.0938 6.48438 44.0938C18.8955 44.0717 43.2015 44.1093 55.8305 44.0938C59.415 44.0976 73.1554 44.0912 76.5156 44.0938C77.2302 44.0938 77.8125 44.6747 77.8125 45.3906V76.5156Z" fill="#9DBD4D"/>
<path d="M53.0723 51.7052C50.8404 48.5823 48.3646 46.9625 48.2609 46.8951C47.7953 46.5929 47.1897 46.6215 46.7552 46.9651C46.5711 47.1091 42.2252 50.5795 40.5237 56.7137C40.3227 57.4296 40.1645 58.1663 40.0504 58.9158C32.8968 57.5917 27.2554 60.948 27.0025 61.1024C26.5291 61.3903 26.2905 61.944 26.4072 62.4848C26.4876 62.8596 28.4926 71.703 37.3827 75.5158C42.1215 77.8736 47.9652 75.3965 50.0415 72.2529C50.0467 72.2477 50.0506 72.2412 50.0545 72.236C50.096 72.1842 50.1375 72.1336 50.1699 72.0752C57.8124 68.9264 58.4829 59.3334 53.0723 51.7052ZM38.4046 73.1309C32.3521 70.5358 29.9581 65.063 29.2189 62.8726C32.8138 60.7431 44.3054 59.7238 47.2312 66.5454C47.2338 66.5518 47.2351 66.5583 47.2376 66.5635C47.2428 66.5739 47.2441 66.5856 47.2493 66.5959C47.6851 67.6503 47.8355 68.68 47.8731 69.4815L34.6917 63.8141C34.0329 63.5353 33.2716 63.8362 32.9876 64.4937C32.7049 65.1512 33.0096 65.9138 33.6671 66.1965L46.8512 71.8638C45.3429 73.1737 42.4185 74.8493 38.4046 73.127V73.1309ZM50.4409 68.9965C50.3683 68.0562 50.1621 66.9331 49.7056 65.7711L49.1946 54.9967C49.1609 54.2808 48.5423 53.7167 47.8381 53.7634C47.1222 53.7971 46.5698 54.4053 46.6035 55.1212L46.9251 61.8948C45.7683 60.8845 44.1109 60.0623 42.5935 59.5721C42.8166 55.745 46.1859 50.8207 47.6358 49.66C53.0425 53.5701 57.3325 64.9359 50.4409 68.9965Z" fill="#9DBD4D"/>
</svg>
