<svg width="95" height="95" viewBox="0 0 95 95" fill="none" xmlns="http://www.w3.org/2000/svg">
<path d="M71.2379 66.8148C70.9292 66.8148 70.6145 66.7168 70.3473 66.5149C69.6912 66.0221 69.5606 65.0929 70.0534 64.4368C73.7495 59.5235 75.7029 53.6662 75.7029 47.5001C75.7029 45.5645 75.504 43.6259 75.1122 41.7407C74.9459 40.9362 75.4625 40.1524 76.264 39.9862C77.0626 39.8199 77.8523 40.3365 78.0186 41.1381C78.452 43.2221 78.6717 45.3626 78.6717 47.5001C78.6717 54.3134 76.5104 60.7912 72.4254 66.224C72.1315 66.6129 71.6862 66.8148 71.2379 66.8148Z" fill="#9DBD4D"/>
<path d="M18.4538 55.1712C17.768 55.1712 17.1505 54.6903 17.002 53.9927C16.5567 51.8641 16.3281 49.6791 16.3281 47.5C16.3281 40.7164 18.4686 34.2653 22.5209 28.8503C23.0108 28.1912 23.943 28.0547 24.5991 28.5505C25.2552 29.0433 25.3917 29.9725 24.8989 30.6286C21.2325 35.527 19.2969 41.3606 19.2969 47.5C19.2969 49.4742 19.5017 51.4544 19.9084 53.3811C20.0777 54.1827 19.5641 54.9694 18.7625 55.1386C18.6586 55.1623 18.5547 55.1712 18.4538 55.1712Z" fill="#9DBD4D"/>
<path d="M51.9531 62.3438H43.0469C42.2275 62.3438 41.5625 61.6787 41.5625 60.8594V53.4375H34.1406C33.3213 53.4375 32.6562 52.7725 32.6562 51.9531V43.0469C32.6562 42.2275 33.3213 41.5625 34.1406 41.5625H41.5625V34.1406C41.5625 33.3213 42.2275 32.6562 43.0469 32.6562H51.9531C52.7725 32.6562 53.4375 33.3213 53.4375 34.1406V41.5625H60.8594C61.6787 41.5625 62.3438 42.2275 62.3438 43.0469V51.9531C62.3438 52.7725 61.6787 53.4375 60.8594 53.4375H53.4375V60.8594C53.4375 61.6787 52.7725 62.3438 51.9531 62.3438ZM44.5312 59.375H50.4688V51.9531C50.4688 51.1338 51.1338 50.4688 51.9531 50.4688H59.375V44.5312H51.9531C51.1338 44.5312 50.4688 43.8663 50.4688 43.0469V35.625H44.5312V43.0469C44.5312 43.8663 43.8663 44.5312 43.0469 44.5312H35.625V50.4688H43.0469C43.8663 50.4688 44.5312 51.1338 44.5312 51.9531V59.375Z" fill="#9DBD4D"/>
<path d="M53.8561 89.0621H38.2969C35.3964 89.0621 32.5642 88.4149 29.8775 87.1384L19.478 82.0856C16.812 80.806 13.9709 80.1559 11.0467 80.1559H4.45312C3.63375 80.1559 2.96875 79.4909 2.96875 78.6715C2.96875 77.8521 3.63375 77.1871 4.45312 77.1871H11.0467C14.4192 77.1871 17.6908 77.9352 20.7694 79.4137L31.1659 84.4635C33.44 85.5412 35.8417 86.0934 38.2969 86.0934H53.5592L66.5238 80.7437C66.5238 80.619 66.6989 79.4701 66.1289 78.4934C65.2591 76.9971 63.2492 76.9496 61.7262 77.1723C59.5145 77.5137 57.6858 78.1282 56.0738 78.6715L55.4622 78.8763C54.6814 79.1287 53.8442 78.716 53.5859 77.9352C53.3277 77.1574 53.7492 76.3173 54.527 76.059L55.1267 75.8601C56.8545 75.2782 58.8109 74.6191 61.2869 74.2391C67.4084 73.3485 68.9373 77.1723 69.2669 78.3627C69.8102 80.3251 69.3589 82.7802 67.6637 83.4898L54.4202 88.9552C54.242 89.0235 54.0491 89.0621 53.8561 89.0621Z" fill="#9DBD4D"/>
<path d="M34.5414 67.9158C33.9833 67.9158 33.4459 67.5982 33.1936 67.0579C30.2842 60.7968 22.7258 59.9002 17.1059 62.2307C16.9248 62.3049 16.7319 62.3435 16.5359 62.3435H4.45312C3.63375 62.3435 2.96875 61.6785 2.96875 60.8591C2.96875 60.0397 3.63375 59.3747 4.45312 59.3747H16.248C24.2844 56.1833 32.683 58.9235 35.8892 65.808C36.2336 66.5502 35.913 67.4349 35.1678 67.7822C34.963 67.8713 34.7522 67.9158 34.5414 67.9158Z" fill="#9DBD4D"/>
<path d="M48.6106 82.0053C48.4176 82.0053 48.2246 81.9667 48.0435 81.8925L31.0445 74.8358C30.2874 74.5211 29.9282 73.6542 30.2429 72.8942C30.5576 72.1372 31.4274 71.7809 32.1845 72.0927L47.6902 78.5289C48.3404 75.4681 46.666 73.0872 42.6879 71.4395L33.9509 67.8117C33.1938 67.497 32.8346 66.6272 33.1493 65.8702C33.464 65.1131 34.3338 64.7539 35.0909 65.0686L43.8249 68.6964C49.9435 71.2317 52.1879 75.7472 49.9821 81.082C49.8307 81.4472 49.5428 81.7381 49.1776 81.8866C48.9965 81.9667 48.8035 82.0053 48.6106 82.0053Z" fill="#9DBD4D"/>
<path d="M31.9767 20.897C27.3068 20.897 26.0302 17.7086 25.7334 16.6398C25.1901 14.6775 25.6413 12.2223 27.3365 11.5128L40.5801 6.04734C40.7582 5.97609 40.9512 5.9375 41.1442 5.9375H56.7004C59.6009 5.9375 62.4331 6.58469 65.1198 7.86125L75.5193 12.9141C78.1882 14.1936 81.0293 14.8438 83.9535 14.8438H90.5471C91.3665 14.8438 92.0315 15.5087 92.0315 16.3281C92.0315 17.1475 91.3665 17.8125 90.5471 17.8125H83.9535C80.581 17.8125 77.3095 17.0644 74.2309 15.5859L63.8343 10.5391C61.5602 9.45844 59.1585 8.90625 56.7034 8.90625H41.441L28.4735 14.2559C28.4735 14.3806 28.2984 15.5295 28.8684 16.5062C29.7412 18.0025 31.7451 18.05 33.271 17.8273C35.4827 17.4859 37.3115 16.8714 38.9235 16.3281L39.5351 16.1233C40.3159 15.868 41.1531 16.2836 41.4113 17.0644C41.6696 17.8422 41.2481 18.6823 40.4702 18.9406L39.8706 19.1395C38.1427 19.7214 36.1863 20.3805 33.7104 20.7605C33.087 20.8555 32.5081 20.897 31.9767 20.897Z" fill="#9DBD4D"/>
<path d="M72.019 36.946C66.4081 36.946 61.4147 34.1435 59.1109 29.1916C58.7665 28.4494 59.0872 27.5647 59.8323 27.2174C60.5775 26.873 61.4592 27.1966 61.8065 27.9388C64.7129 34.1969 72.2684 35.0905 77.8942 32.766C78.0753 32.6947 78.2683 32.6561 78.4642 32.6561H90.547C91.3664 32.6561 92.0314 33.3211 92.0314 34.1405C92.0314 34.9599 91.3664 35.6249 90.547 35.6249H78.7522C76.4959 36.5185 74.21 36.946 72.019 36.946Z" fill="#9DBD4D"/>
<path d="M60.4797 30.0437C60.2897 30.0437 60.0967 30.0081 59.9097 29.9309L51.1756 26.3031C45.057 23.7678 42.8127 19.2523 45.0184 13.9175C45.1698 13.5523 45.4578 13.2614 45.823 13.1129C46.1881 12.9645 46.5948 12.9615 46.96 13.1129L63.9591 20.1697C64.7161 20.4843 65.0753 21.3512 64.7606 22.1112C64.4459 22.8712 63.582 23.2245 62.8191 22.9128L47.3133 16.4765C46.6631 19.5373 48.3375 21.9182 52.3156 23.5659L61.0527 27.1937C61.8097 27.5084 62.1689 28.3782 61.8542 29.1353C61.6137 29.6993 61.0616 30.0437 60.4797 30.0437Z" fill="#9DBD4D"/>
<path d="M66.8416 71.354C66.4616 71.354 66.0816 71.2085 65.7906 70.9206C65.2117 70.3416 65.2117 69.4005 65.7906 68.8216C66.3725 68.2427 67.4145 68.1388 67.9934 68.7177C68.5723 69.2966 68.6763 70.1338 68.0973 70.7127L67.8895 70.9206C67.6016 71.2085 67.2216 71.354 66.8416 71.354Z" fill="#9DBD4D"/>
<path d="M28.2475 26.8225C27.8645 26.8225 27.4815 26.674 27.1906 26.3801C26.6147 25.7953 26.6206 24.8572 27.2054 24.2812L27.4162 24.0734C27.9981 23.4975 28.9392 23.5034 29.5151 24.0883C30.0911 24.6731 30.0851 25.6112 29.5003 26.1872L29.2895 26.395C29.0015 26.68 28.6245 26.8225 28.2475 26.8225Z" fill="#9DBD4D"/>
</svg>
